<svg xmlns="http://www.w3.org/2000/svg" width="831" height="191" viewBox="0 0 831 191" version="1.1">
    <path
        d="M 476.195 84.746 C 482.077 84.922, 491.977 84.923, 498.195 84.747 C 504.413 84.571, 499.600 84.427, 487.500 84.426 C 475.400 84.425, 470.313 84.569, 476.195 84.746 M 765.500 129 C 775.389 138.900, 783.704 147, 783.979 147 C 784.254 147, 776.389 138.900, 766.500 129 C 756.611 119.100, 748.296 111, 748.021 111 C 747.746 111, 755.611 119.100, 765.500 129 M 344.370 135 C 344.370 140.775, 344.535 143.137, 344.737 140.250 C 344.939 137.363, 344.939 132.637, 344.737 129.750 C 344.535 126.862, 344.370 129.225, 344.370 135 M 198.460 145 L 198.500 161.500 205 161.500 L 211.500 161.500 211.538 145.249 L 211.577 128.998 211.264 144.999 L 210.950 161 205 161 L 199.050 161 198.735 144.750 L 198.421 128.500 198.460 145 M 608.456 146.749 L 608.500 160.500 615 160.568 L 621.500 160.637 615.278 160.273 L 609.056 159.910 608.734 146.454 L 608.412 132.997 608.456 146.749 M 426.385 148 C 426.385 154.875, 426.545 157.688, 426.740 154.250 C 426.936 150.813, 426.936 145.188, 426.740 141.750 C 426.545 138.313, 426.385 141.125, 426.385 148 M 344.897 160.302 C 345.340 160.742, 348.582 160.962, 352.102 160.790 L 358.500 160.477 351.295 159.989 C 347.333 159.720, 344.453 159.861, 344.897 160.302 M 468.750 160.748 C 478.238 160.913, 493.762 160.913, 503.250 160.748 C 512.737 160.584, 504.975 160.450, 486 160.450 C 467.025 160.450, 459.262 160.584, 468.750 160.748 M 718.728 160.722 C 720.503 160.943, 723.653 160.946, 725.728 160.730 C 727.802 160.513, 726.350 160.333, 722.500 160.328 C 718.650 160.324, 716.952 160.501, 718.728 160.722 M 172.750 161.723 C 174.537 161.945, 177.463 161.945, 179.250 161.723 C 181.037 161.502, 179.575 161.320, 176 161.320 C 172.425 161.320, 170.963 161.502, 172.750 161.723"
        stroke="none" fill="#30648f" fill-rule="evenodd" />
    <path
        d="M 286.334 13.481 C 269.584 16.520, 257.132 22.310, 236.500 36.652 C 218.040 49.484, 213.272 51.966, 201.250 55.003 C 197.692 55.902, 197 56.478, 197 58.539 C 197 61.341, 197.409 61.406, 205.566 59.916 C 213.470 58.472, 225.183 52.887, 239.088 43.932 C 258.601 31.365, 270.750 27.070, 289 26.284 C 302.408 25.706, 312.218 27.588, 325.522 33.291 L 333.544 36.729 337.727 28.823 L 341.910 20.916 339.205 19.853 C 320.398 12.457, 303.318 10.399, 286.334 13.481 M 384 36.194 C 380.975 37.926, 374.675 43.204, 370 47.922 C 363.466 54.516, 360.417 58.582, 356.816 65.500 C 347.503 83.395, 345.291 96.197, 344.806 135 L 344.500 159.500 351.250 159.796 L 358 160.091 358 147.533 L 358 134.974 392.250 135.237 L 426.500 135.500 426.780 148.250 L 427.060 161 433.530 161 L 440 161 439.997 137.750 C 439.996 124.963, 439.500 110.450, 438.896 105.500 C 436.050 82.189, 427.943 62.298, 416.186 49.786 C 408.614 41.727, 396.070 32.989, 392.122 33.022 C 390.680 33.034, 387.025 34.462, 384 36.194 M 644.826 39.251 C 633.379 47.002, 625.424 56.177, 619.464 68.500 C 611.185 85.622, 609.020 99.541, 609.008 135.750 L 609 160 615.469 160 L 621.938 160 622.219 147.750 L 622.500 135.500 656.750 135.237 L 691 134.974 691 147.987 L 691 161 697.600 161 L 704.200 161 703.727 131.750 C 703.323 106.829, 702.940 101.078, 701.135 92.891 C 695.061 65.340, 683.040 47.341, 662.912 35.662 C 660.389 34.198, 657.364 33, 656.191 33 C 655.017 33, 649.903 35.813, 644.826 39.251 M 278.870 35.071 C 271.155 36.204, 262.017 39.396, 252.500 44.283 C 242.484 49.425, 230.001 61.493, 225.189 70.686 C 216.061 88.125, 215.860 108.012, 224.631 126 C 229.930 136.869, 242.373 149.039, 254 154.726 C 276.639 165.800, 302.717 166.419, 325.015 156.413 C 330.153 154.107, 331.154 153.214, 332.075 150.113 C 332.665 148.126, 333.002 144.397, 332.824 141.827 L 332.500 137.153 326.001 141.069 C 302.923 154.974, 272.494 153.623, 251.548 137.763 C 235.452 125.576, 228.508 105.828, 233.533 86.535 C 239.053 65.341, 259.427 50.193, 286.064 47.476 C 298.444 46.214, 315.573 50.309, 326.062 57.040 C 328.599 58.668, 330.973 60, 331.338 60 C 331.702 60, 332 56.920, 332 53.155 C 332 44.786, 331.374 44.092, 320.129 39.988 C 305.821 34.766, 292.087 33.129, 278.870 35.071 M 550.314 36.801 C 538.952 40.850, 533.323 46.732, 530.544 57.460 C 528.633 64.836, 528.627 66.379, 530.477 72.612 C 532.735 80.213, 537.611 84.935, 555.800 97.136 C 578.452 112.332, 583.549 116.438, 585.971 121.441 C 590.913 131.648, 586.482 143.446, 575.500 149.324 C 572.377 150.996, 569.741 151.469, 563.479 151.483 C 556.444 151.498, 554.662 151.106, 548.979 148.291 C 545.416 146.526, 540.255 143.216, 537.512 140.934 L 532.524 136.786 529.262 140.560 C 527.468 142.635, 526 144.891, 526 145.573 C 526 147.132, 534.055 153.859, 540 157.265 C 558.777 168.022, 583.751 164.014, 594.929 148.450 C 599.290 142.377, 601 136.873, 601 128.912 C 601 112.952, 594.514 104.831, 569.500 89.472 C 560.700 84.068, 551.866 78.381, 549.869 76.834 C 544.916 72.996, 542.655 67.942, 543.227 61.987 C 544.068 53.238, 550.866 47.385, 561.458 46.292 C 565.948 45.829, 568.080 46.325, 577.021 49.912 C 582.718 52.198, 587.871 53.880, 588.470 53.650 C 589.070 53.420, 590.432 51.613, 591.497 49.635 C 593.417 46.071, 593.416 46.024, 591.467 44.461 C 590.385 43.594, 586.130 41.235, 582.012 39.218 C 575.234 35.900, 573.620 35.523, 565.012 35.252 C 557.715 35.023, 554.292 35.384, 550.314 36.801 M 452 99 L 452 160 486 160 L 520 160 520 154.500 L 520 149 492.483 149 L 464.967 149 465.233 122.750 L 465.500 96.500 487.750 96.231 L 510 95.962 510 90.500 L 510 85.038 487.750 84.769 L 465.500 84.500 465.500 67 L 465.500 49.500 489.250 49.232 L 513 48.964 513 43.482 L 513 38 482.500 38 L 452 38 452 99 M 716 98.887 L 716 160 722.500 160 L 729 160 729 135.934 C 729 121.937, 729.415 111.093, 729.992 110.016 C 731.259 107.647, 735.879 106.635, 741.272 107.545 C 745.145 108.199, 747.730 110.470, 772.092 134.629 L 798.683 161 807.342 161 C 812.104 161, 816 160.666, 816 160.257 C 816 159.848, 804.015 147.522, 789.366 132.866 L 762.732 106.218 769.535 102.859 C 777.752 98.801, 784.735 92.254, 788.047 85.500 C 790.068 81.380, 790.499 79.003, 790.495 72 C 790.489 61.063, 787.142 53.111, 779.744 46.459 C 772.060 39.552, 768.493 38.810, 740.250 38.252 L 716 37.773 716 98.887 M 381.766 54.326 C 367.229 68.982, 360.064 86.915, 358.361 112.911 L 357.699 123 392 123 L 426.301 123 425.639 112.903 C 423.871 85.927, 415.800 66.199, 401.105 52.936 C 392.202 44.901, 391.031 44.985, 381.766 54.326 M 649.276 50.970 C 639.961 58.386, 631.467 72.005, 627.088 86.543 C 624.697 94.483, 622.015 111.217, 622.006 118.250 L 622 123 656.569 123 L 691.137 123 690.476 114.750 C 688.487 89.924, 680.811 69.009, 669.147 56.629 C 664.368 51.557, 658.137 47, 655.981 47 C 655.035 47, 652.018 48.786, 649.276 50.970 M 729.494 50.155 C 729.200 50.921, 729.081 61.437, 729.230 73.524 L 729.500 95.500 741.381 95.783 C 759.566 96.216, 768.658 92.558, 774.600 82.420 C 779.156 74.646, 777.843 62.749, 771.702 56.166 C 766.619 50.717, 762.679 49.658, 745.764 49.194 C 732.945 48.842, 729.930 49.020, 729.494 50.155 M 28.007 114.542 C 19.295 118.447, 15.610 125.095, 15.546 137.024 C 15.489 147.541, 18.213 153.797, 24.891 158.491 C 28.868 161.286, 29.801 161.500, 38 161.500 C 46.199 161.500, 47.132 161.286, 51.109 158.491 C 57.643 153.899, 60.500 147.513, 60.500 137.500 C 60.500 127.490, 57.643 121.101, 51.115 116.513 C 47.393 113.897, 45.844 113.473, 39.169 113.242 C 33.869 113.058, 30.421 113.460, 28.007 114.542 M 69 146.500 L 69 180 75.500 180 L 82 180 82 169.015 L 82 158.029 85.250 160.011 C 89.468 162.582, 97.320 162.645, 102.016 160.144 C 103.932 159.124, 106.841 156.136, 108.480 153.505 C 111.183 149.167, 111.492 147.782, 111.803 138.611 C 112.125 129.136, 111.969 128.154, 109.323 123.001 C 105.559 115.670, 101.466 113, 93.992 113 C 89.566 113, 87.459 113.556, 84.640 115.470 L 81 117.940 81 115.470 C 81 113.118, 80.714 113, 75 113 L 69 113 69 146.500 M 130.842 114.968 C 126.181 117.498, 121.605 123.037, 120.141 127.922 C 118.708 132.706, 118.678 142.300, 120.081 147.351 C 121.591 152.789, 128.391 159.290, 134.302 160.945 C 141.662 163.005, 151.304 161.870, 156.290 158.356 C 158.519 156.785, 160.515 154.973, 160.728 154.329 C 160.940 153.686, 159.844 151.738, 158.292 150.001 L 155.470 146.842 152.509 149.171 C 150.175 151.007, 148.310 151.500, 143.692 151.500 C 138.342 151.500, 137.584 151.218, 134.918 148.234 C 129.616 142.300, 130.199 142, 147.031 142 C 164.405 142, 163.850 142.347, 162.219 132.503 C 160.780 123.821, 158.417 119.304, 153.667 116.161 C 148.213 112.552, 136.430 111.936, 130.842 114.968 M 170 137 L 170 161 176.500 161 L 183 161 183 143.557 C 183 126.665, 183.070 126.064, 185.223 124.557 C 187.542 122.932, 193.639 122.483, 195.687 123.786 C 198.196 125.381, 199 130.665, 199 145.565 L 199 161 205 161 L 211 161 211 142.468 C 211 122.212, 210.350 118.994, 205.486 115.168 C 201.361 111.923, 191.614 112.094, 186.595 115.500 C 184.569 116.875, 182.706 118, 182.456 118 C 182.205 118, 182 116.875, 182 115.500 C 182 113.111, 181.733 113, 176 113 L 170 113 170 137 M 31.960 125.040 C 29.059 127.941, 28 131.318, 28 137.664 C 28 146.757, 31.776 152, 38.325 152 C 47.918 152, 51.643 133.666, 43.759 125.250 C 40.976 122.279, 34.831 122.169, 31.960 125.040 M 84.223 124.557 C 82.146 126.011, 82 126.866, 82 137.531 L 82 148.949 84.950 150.474 C 91.858 154.047, 97.574 150.760, 98.819 142.500 C 99.862 135.586, 98.613 128.281, 95.892 125.385 C 93.239 122.561, 87.639 122.164, 84.223 124.557 M 136.750 124.080 C 134.971 125.116, 132 130.039, 132 131.950 C 132 132.607, 135.421 133, 141.125 133 L 150.250 133 149.622 129.750 C 149.277 127.963, 148.045 125.713, 146.886 124.750 C 144.567 122.825, 139.483 122.489, 136.750 124.080"
        stroke="none" fill="#04549c" fill-rule="evenodd" />
</svg>