<svg width="128" height="147" viewBox="0 0 128 147" fill="none" xmlns="http://www.w3.org/2000/svg">
    <rect x="34.6667" y="37.3333" width="57.3333" height="57.3333" fill="#275A83" />
    <path
        d="M64 80C72.8366 80 80 72.8366 80 64C80 55.1634 72.8366 48 64 48C55.1634 48 48 55.1634 48 64C48 72.8366 55.1634 80 64 80Z"
        fill="#64C7F4" />
    <path
        d="M122.71 59.65C116.095 49.42 107.512 40.73 97.8925 34.5175C87.25 27.6375 75.5 24 63.915 24C53.285 24 42.8325 27.0375 32.8475 33.0275C22.665 39.135 13.44 48.0575 5.4275 59.545C4.52296 60.8433 4.02479 62.3811 3.9963 63.9632C3.96782 65.5452 4.41029 67.1 5.2675 68.43C11.87 78.7625 20.3675 87.465 29.8375 93.5925C40.5 100.5 51.975 104 63.915 104C75.5925 104 87.3675 100.392 97.965 93.57C107.58 87.3775 116.145 78.655 122.735 68.34C123.563 67.0409 124 65.5317 123.996 63.9913C123.991 62.451 123.545 60.9443 122.71 59.65ZM64 88C59.2532 88 54.6131 86.5924 50.6663 83.9553C46.7195 81.3181 43.6434 77.5698 41.8269 73.1844C40.0104 68.799 39.5351 63.9734 40.4611 59.3178C41.3872 54.6623 43.673 50.3859 47.0294 47.0294C50.3859 43.673 54.6623 41.3872 59.3178 40.4612C63.9734 39.5351 68.799 40.0104 73.1844 41.8269C77.5698 43.6434 81.3181 46.7195 83.9553 50.6663C86.5924 54.6131 88 59.2532 88 64C87.9927 70.363 85.4618 76.4632 80.9625 80.9625C76.4632 85.4618 70.363 87.9927 64 88Z"
        fill="#C9AC62" />
    <path opacity="0.6"
        d="M76.0833 141.218C76.0833 138.185 78.5246 135.744 81.4837 135.744H99.8304C102.79 135.744 105.231 138.185 105.231 141.144V141.218C105.231 144.177 102.79 146.618 99.8304 146.618H81.4837C78.5246 146.618 76.0833 144.177 76.0833 141.218Z"
        fill="#03A9F4" />
    <path opacity="0.6"
        d="M66.0222 146.692C62.9891 146.692 60.5478 144.251 60.5478 141.292V113.92C60.5478 110.961 62.9891 108.52 65.9482 108.52H66.0222C68.9813 108.52 71.4226 110.961 71.4226 113.92V141.292C71.4226 144.251 68.9813 146.692 66.0222 146.692Z"
        fill="#003D6E" />
    <path opacity="0.6"
        d="M81.6317 146.692C78.5985 146.692 76.1573 144.251 76.1573 141.292V113.92C76.1573 110.961 78.5985 108.52 81.5577 108.52H81.6317C84.5908 108.52 87.0321 110.961 87.0321 113.92V141.292C87.0321 144.251 84.5908 146.692 81.6317 146.692Z"
        fill="#003D6E" />
    <path opacity="0.6"
        d="M58.6244 119.172C53.9637 109.703 42.571 105.708 33.1018 110.369C23.6326 114.956 19.6377 126.348 24.2244 135.818C28.811 145.287 40.2777 149.282 49.7469 144.621C59.2162 139.96 63.211 128.642 58.6244 119.172ZM41.6833 136.113C36.8747 136.113 33.0278 132.267 33.0278 127.458C33.0278 122.649 36.8747 118.803 41.6833 118.803C46.4919 118.803 50.3388 122.649 50.3388 127.458C50.3388 132.267 46.4919 136.113 41.6833 136.113Z"
        fill="#AC7B00" />
    <path opacity="0.6"
        d="M78.9684 145.879C76.3052 144.325 75.4175 141.07 76.897 138.481L92.6544 111.183C94.134 108.593 97.463 107.706 100.052 109.185H100.126C102.715 110.665 103.603 113.994 102.124 116.583L86.3663 143.955C84.8867 146.47 81.5577 147.432 78.9684 145.879Z"
        fill="#03A9F4" />
    <path opacity="0.6"
        d="M47.6755 145.879C45.0123 144.325 44.1246 141.07 45.6041 138.481L61.3616 111.183C62.8411 108.593 66.1702 107.706 68.7594 109.185H68.8334C71.4226 110.665 72.3104 113.994 70.8308 116.583L55.0734 143.881C53.5938 146.47 50.2648 147.432 47.6755 145.879Z"
        fill="#003D6E" />
    <path opacity="0.6"
        d="M63.285 145.879C60.6218 144.325 59.734 141.07 61.2136 138.481L76.971 111.183C78.4506 108.593 81.7796 107.706 84.3688 109.185H84.4428C87.0321 110.665 87.9198 113.994 86.4402 116.583L70.6828 143.881C69.2033 146.47 65.8742 147.432 63.285 145.879Z"
        fill="#003D6E" />
</svg>
    
