<svg width="750" height="271" viewBox="0 0 750 271" fill="none" xmlns="http://www.w3.org/2000/svg">
    <title>Powered by React, Typescript, and VSCode</title>
    <g clip-path="url(#clip0_720_35)">
        <path
            d="M242.599 85.0877C239.459 84.0104 236.292 83.0123 233.102 82.0945C233.637 79.9046 234.131 77.7412 234.569 75.6159C241.759 40.7146 237.058 12.5975 221.004 3.33997C205.611 -5.53488 180.438 3.71917 155.014 25.8452C152.509 28.0297 150.059 30.2772 147.667 32.5855C146.065 31.0506 144.436 29.5454 142.779 28.0708C116.133 4.41302 89.4257 -5.55793 73.3887 3.72609C58.0099 12.6286 53.456 39.0607 59.9289 72.1374C60.5729 75.4133 61.3 78.6723 62.1096 81.9112C58.3292 82.9854 54.6812 84.1288 51.1901 85.3459C19.9506 96.2378 0.000610352 113.306 0.000610352 131.011C0.000610352 149.297 21.4178 167.638 53.9551 178.759C56.593 179.657 59.2528 180.489 61.9321 181.254C61.0619 184.743 60.2894 188.255 59.6154 191.787C53.4445 224.289 58.2635 250.097 73.6008 258.943C89.4419 268.078 116.03 258.689 141.918 236.058C144.017 234.218 146.07 232.326 148.075 230.384C150.665 232.884 153.325 235.31 156.051 237.661C181.128 259.24 205.895 267.954 221.217 259.083C237.043 249.921 242.187 222.197 235.509 188.467C234.983 185.825 234.393 183.195 233.74 180.581C235.607 180.028 237.44 179.459 239.226 178.866C273.052 167.66 295.061 149.541 295.061 131.011C295.061 113.242 274.466 96.058 242.599 85.0877ZM235.263 166.902C233.649 167.436 231.994 167.951 230.307 168.453C226.572 156.631 221.533 144.061 215.366 131.072C221.251 118.394 226.096 105.984 229.726 94.2392C232.744 95.1129 235.673 96.0338 238.497 97.0054C265.801 106.406 282.456 120.302 282.456 131.011C282.456 142.417 264.469 157.224 235.263 166.902ZM223.144 190.915C226.097 205.83 226.518 219.315 224.562 229.857C222.806 239.33 219.272 245.645 214.901 248.175C205.603 253.558 185.718 246.562 164.272 228.107C161.737 225.921 159.263 223.664 156.853 221.341C165.167 212.248 173.476 201.678 181.586 189.938C195.85 188.672 209.326 186.602 221.547 183.777C222.136 186.144 222.668 188.524 223.144 190.915ZM100.593 247.245C91.5084 250.453 84.2725 250.545 79.8985 248.023C70.5914 242.656 66.7222 221.933 71.9999 194.138C72.6272 190.853 73.3456 187.587 74.154 184.342C86.24 187.016 99.618 188.939 113.916 190.098C122.081 201.586 130.629 212.145 139.245 221.391C137.414 223.162 135.54 224.889 133.624 226.568C122.175 236.575 110.703 243.674 100.593 247.245ZM58.0329 166.832C43.6453 161.914 31.7634 155.523 23.6192 148.549C16.3004 142.282 12.6064 136.059 12.6064 131.011C12.6064 120.267 28.6237 106.563 55.3394 97.2486C58.5816 96.1191 61.9748 95.0529 65.4959 94.0525C69.1887 106.062 74.0319 118.62 79.8766 131.318C73.9558 144.203 69.0435 156.961 65.3149 169.113C62.8693 168.412 60.4412 167.652 58.0329 166.832ZM72.2996 69.7158C66.7545 41.3774 70.437 20.0005 79.7049 14.6352C89.5756 8.92076 111.403 17.0683 134.41 37.4966C135.91 38.8318 137.386 40.1939 138.837 41.5825C130.264 50.7882 121.794 61.2686 113.701 72.6883C99.8243 73.9746 86.5408 76.04 74.3281 78.8074C73.5756 75.7947 72.8993 72.7625 72.2996 69.7158ZM199.575 101.145C196.691 96.1628 193.699 91.2428 190.603 86.389C200.017 87.5796 209.037 89.1598 217.507 91.0915C214.965 99.2426 211.795 107.764 208.064 116.5C205.337 111.326 202.507 106.207 199.575 101.145ZM147.672 50.5922C153.486 56.8911 159.309 63.923 165.036 71.553C153.418 71.0043 141.781 71.002 130.162 71.5461C135.895 63.9863 141.768 56.9637 147.672 50.5922ZM95.4364 101.231C92.5415 106.251 89.7642 111.339 87.1067 116.489C83.4369 107.783 80.2961 99.223 77.7317 90.9567C86.1501 89.0734 95.1275 87.5335 104.482 86.3648C101.351 91.2483 98.3348 96.2057 95.4364 101.231ZM104.75 176.554C95.086 175.475 85.9737 174.015 77.5576 172.182C80.1624 163.769 83.3724 155.026 87.1217 146.134C89.7897 151.288 92.5786 156.378 95.486 161.401C98.4758 166.565 101.572 171.622 104.75 176.554ZM148.021 212.319C142.046 205.873 136.087 198.742 130.267 191.073C135.917 191.294 141.677 191.407 147.531 191.407C153.545 191.407 159.49 191.273 165.341 191.012C159.596 198.82 153.795 205.961 148.021 212.319ZM208.183 145.68C212.127 154.67 215.451 163.366 218.09 171.636C209.536 173.588 200.299 175.161 190.567 176.328C193.685 171.384 196.705 166.379 199.625 161.315C202.593 156.167 205.447 150.954 208.183 145.68ZM188.707 155.017C184.237 162.781 179.516 170.398 174.552 177.855C165.559 178.492 156.546 178.809 147.531 178.804C138.348 178.804 129.417 178.518 120.816 177.96C115.722 170.52 110.911 162.89 106.394 155.086C101.898 147.324 97.6996 139.393 93.8055 131.312C97.6897 123.229 101.876 115.295 106.357 107.526L106.356 107.527C110.835 99.7569 115.607 92.1594 120.663 84.7512C129.437 84.0873 138.436 83.7415 147.53 83.7415C156.665 83.7415 165.676 84.0908 174.448 84.7593C179.453 92.1563 184.195 99.7277 188.665 107.459C193.161 115.211 197.403 123.106 201.385 131.133C197.444 139.242 193.215 147.209 188.707 155.017ZM214.709 14.2595C224.589 19.9578 228.431 42.9368 222.223 73.071C221.827 74.9935 221.382 76.9517 220.898 78.9376C208.655 76.1115 195.363 74.0103 181.445 72.7044C173.338 61.1591 164.937 50.6625 156.503 41.5756C158.714 39.4451 160.977 37.3698 163.29 35.3517C185.074 16.3952 205.433 8.91038 214.709 14.2595ZM147.531 104.663C162.082 104.663 173.879 116.46 173.879 131.011C173.879 145.562 162.082 157.359 147.531 157.359C132.979 157.359 121.183 145.562 121.183 131.011C121.183 116.46 132.979 104.663 147.531 104.663Z"
            fill="#00D8FF" />
    </g>
    <g clip-path="url(#clip1_720_35)">
        <path
            d="M256.372 156.03H195.295C180.413 156.03 168.349 168.094 168.349 182.976V244.054C168.349 258.936 180.413 271 195.295 271H256.372C271.254 271 283.318 258.936 283.318 244.054V182.976C283.318 168.094 271.254 156.03 256.372 156.03Z"
            fill="#007ACC" />
        <path
            d="M193.773 213.896L193.736 218.605H208.7V261.125H219.285V218.605H234.249V213.988C234.249 211.433 234.195 209.298 234.122 209.243C234.067 209.17 224.961 209.133 213.92 209.152L193.828 209.206L193.773 213.896ZM261.118 209.073C264.037 209.803 266.264 211.099 268.308 213.215C269.366 214.347 270.936 216.409 271.064 216.902C271.1 217.048 266.1 220.406 263.071 222.285C262.961 222.358 262.523 221.884 262.03 221.154C260.552 219 259.001 218.069 256.628 217.906C253.143 217.668 250.898 219.493 250.917 222.541C250.917 223.435 251.044 223.964 251.409 224.694C252.175 226.282 253.599 227.231 258.07 229.165C266.3 232.706 269.822 235.041 272.013 238.363C274.458 242.067 275.005 247.98 273.345 252.378C271.52 257.159 266.994 260.408 260.625 261.484C258.654 261.831 253.982 261.776 251.865 261.393C247.248 260.572 242.869 258.291 240.168 255.298C239.109 254.13 237.047 251.082 237.175 250.863C237.229 250.79 237.704 250.499 238.233 250.188C238.744 249.896 240.679 248.783 242.504 247.724L245.807 245.808L246.5 246.83C247.467 248.308 249.584 250.334 250.862 251.009C254.53 252.944 259.567 252.67 262.048 250.444C263.107 249.476 263.545 248.473 263.545 246.995C263.545 245.662 263.38 245.078 262.687 244.075C261.793 242.797 259.968 241.72 254.785 239.476C248.854 236.921 246.299 235.333 243.964 232.815C242.613 231.355 241.335 229.019 240.806 227.066C240.368 225.442 240.259 221.373 240.606 219.73C241.828 214 246.153 210.004 252.394 208.817C254.42 208.434 259.128 208.58 261.118 209.073Z"
            fill="white" />
    </g>
    <path
        d="M423.603 140.74H391.853V172.24H381.27V140.74H349.52V130.24H381.27V98.7395H391.853V130.24H423.603V140.74Z"
        fill="#699BF7" />
    <g clip-path="url(#clip2_720_35)">
        <path fill-rule="evenodd" clip-rule="evenodd"
            d="M552.599 263.037C551.858 263.037 551.208 263.096 550.66 263.221C550.105 263.343 549.646 263.537 549.284 263.782C548.947 264.005 548.67 264.309 548.481 264.67C548.307 265.043 548.22 265.45 548.227 265.861C548.227 266.627 548.475 267.243 548.96 267.697C549.457 268.148 550.141 268.372 551.022 268.372C551.721 268.378 552.407 268.192 553.008 267.838C553.622 267.469 554.257 266.916 554.934 266.172V263.037H552.599ZM628.223 256.563C627.526 256.563 626.936 256.732 626.451 257.065C625.961 257.401 625.557 257.846 625.272 258.365C624.958 258.935 624.734 259.549 624.609 260.187C624.474 260.871 624.406 261.566 624.406 262.263C624.406 263.001 624.459 263.729 624.584 264.45C624.696 265.161 624.899 265.792 625.183 266.345C625.464 266.901 625.852 267.349 626.32 267.68C626.794 268.013 627.385 268.182 628.109 268.182C628.469 268.182 628.814 268.127 629.146 268.034C629.516 267.922 629.867 267.756 630.188 267.541C630.583 267.276 630.953 266.976 631.293 266.644C631.729 266.218 632.14 265.762 632.517 265.281V259.365C631.776 258.453 631.06 257.757 630.372 257.283C629.748 256.827 628.997 256.574 628.223 256.563ZM655.723 256.5C654.91 256.5 654.216 256.644 653.634 256.932C653.059 257.207 652.563 257.62 652.19 258.135C651.801 258.697 651.516 259.325 651.349 259.987C651.159 260.753 651.07 261.539 651.08 262.326C651.08 263.142 651.146 263.898 651.298 264.609C651.446 265.326 651.705 265.952 652.048 266.477C652.399 267.013 652.867 267.435 653.458 267.743C654.048 268.055 654.779 268.216 655.662 268.216C656.454 268.216 657.15 268.068 657.741 267.785C658.334 267.496 658.808 267.1 659.187 266.583C659.588 266.031 659.873 265.404 660.023 264.739C660.206 263.969 660.295 263.179 660.288 262.387C660.288 261.586 660.22 260.831 660.061 260.12C659.929 259.455 659.678 258.819 659.32 258.242C658.972 257.706 658.492 257.268 657.925 256.968C657.339 256.66 656.606 256.5 655.723 256.5ZM642.194 254.465C642.465 254.465 642.696 254.473 642.872 254.492C643.013 254.51 643.152 254.546 643.285 254.597C643.369 254.631 643.443 254.684 643.496 254.754C643.54 254.819 643.562 254.896 643.56 254.975V269.781C643.563 269.858 643.54 269.934 643.496 269.998C643.441 270.068 643.368 270.122 643.285 270.156C643.151 270.204 643.013 270.237 642.872 270.253C642.427 270.295 641.978 270.295 641.532 270.253C641.388 270.237 641.247 270.206 641.11 270.158C641.025 270.129 640.951 270.074 640.899 270C640.858 269.934 640.836 269.858 640.835 269.781V254.973C640.839 254.896 640.861 254.821 640.899 254.754C640.933 254.694 641.004 254.642 641.11 254.597C641.247 254.545 641.389 254.51 641.534 254.492C641.71 254.471 641.93 254.465 642.194 254.465ZM606.905 254.465C607.168 254.465 607.388 254.473 607.561 254.492C607.708 254.495 607.852 254.528 607.985 254.589C608.072 254.622 608.15 254.675 608.211 254.745C608.257 254.813 608.28 254.893 608.279 254.975V263.59C608.279 264.459 608.338 265.151 608.463 265.672C608.574 266.147 608.771 266.599 609.043 267.005C609.297 267.372 609.626 267.657 610.022 267.859C610.42 268.057 610.887 268.165 611.415 268.165C612.092 268.165 612.772 267.929 613.451 267.444C614.129 266.96 614.845 266.252 615.611 265.317V254.973C615.61 254.894 615.628 254.817 615.664 254.747C615.722 254.676 615.798 254.622 615.884 254.591C616.017 254.531 616.161 254.496 616.307 254.49C616.473 254.475 616.703 254.467 616.977 254.467C617.241 254.467 617.463 254.473 617.637 254.492C617.781 254.493 617.922 254.525 618.052 254.587C618.137 254.623 618.211 254.678 618.272 254.745C618.323 254.811 618.348 254.892 618.342 254.975V269.781C618.344 269.857 618.326 269.932 618.289 269.998C618.239 270.07 618.168 270.125 618.086 270.156C617.963 270.201 617.835 270.233 617.705 270.251C617.303 270.297 616.896 270.297 616.494 270.251C616.363 270.238 616.235 270.207 616.113 270.158C616.033 270.127 615.964 270.072 615.918 270C615.884 269.932 615.87 269.856 615.876 269.781V267.819C615.02 268.753 614.182 269.426 613.365 269.859C612.592 270.273 611.731 270.493 610.854 270.5C609.865 270.5 609.024 270.331 608.349 270.009C607.698 269.703 607.135 269.242 606.708 268.665C606.273 268.075 605.967 267.401 605.81 266.686C605.612 265.79 605.521 264.874 605.539 263.957V254.975C605.539 254.884 605.554 254.806 605.597 254.743C605.653 254.67 605.731 254.615 605.819 254.587C605.954 254.526 606.1 254.492 606.249 254.488C606.427 254.473 606.638 254.465 606.905 254.465ZM530.828 254.465C531.095 254.465 531.315 254.473 531.491 254.492C531.637 254.495 531.781 254.528 531.914 254.589C531.999 254.625 532.071 254.678 532.132 254.745C532.177 254.813 532.2 254.893 532.196 254.975V263.59C532.196 264.459 532.257 265.151 532.391 265.672C532.511 266.197 532.706 266.638 532.962 267.005C533.227 267.372 533.555 267.657 533.949 267.859C534.347 268.057 534.806 268.165 535.331 268.165C536.02 268.165 536.699 267.929 537.379 267.444C538.048 266.96 538.772 266.252 539.53 265.317V254.973C539.53 254.889 539.547 254.808 539.589 254.747C539.645 254.674 539.723 254.619 539.811 254.591C539.944 254.528 540.088 254.494 540.235 254.49C540.457 254.469 540.679 254.462 540.904 254.467C541.16 254.467 541.378 254.473 541.558 254.492C541.701 254.494 541.842 254.526 541.971 254.587C542.056 254.626 542.133 254.679 542.2 254.745C542.245 254.813 542.269 254.893 542.267 254.975V269.781C542.271 269.858 542.25 269.934 542.208 269.998C542.158 270.07 542.087 270.125 542.005 270.156C541.881 270.203 541.753 270.235 541.622 270.251C541.219 270.299 540.813 270.299 540.411 270.251C540.28 270.236 540.152 270.205 540.029 270.158C539.934 270.112 539.873 270.059 539.85 270C539.811 269.933 539.791 269.858 539.792 269.781V267.819C538.95 268.753 538.109 269.426 537.281 269.859C536.515 270.274 535.651 270.494 534.777 270.5C533.784 270.5 532.954 270.331 532.272 270.009C531.621 269.701 531.056 269.24 530.625 268.665C530.197 268.071 529.892 267.399 529.727 266.686C529.533 265.79 529.442 264.874 529.456 263.957V254.975C529.456 254.884 529.473 254.806 529.516 254.743C529.573 254.672 529.649 254.618 529.736 254.587C529.872 254.526 530.019 254.492 530.168 254.488C530.343 254.473 530.564 254.467 530.83 254.467L530.828 254.465ZM509.762 254.465C509.989 254.462 510.216 254.471 510.442 254.492C510.581 254.51 510.718 254.545 510.848 254.597C510.934 254.628 511.01 254.682 511.066 254.754C511.11 254.819 511.132 254.896 511.13 254.975V269.781C511.132 269.858 511.11 269.934 511.066 269.998C511.01 270.07 510.934 270.125 510.848 270.156C510.717 270.204 510.581 270.237 510.442 270.253C509.997 270.295 509.548 270.295 509.104 270.253C508.959 270.237 508.817 270.206 508.68 270.158C508.595 270.129 508.521 270.074 508.469 270C508.424 269.936 508.402 269.859 508.405 269.781V254.973C508.405 254.895 508.426 254.819 508.469 254.754C508.521 254.681 508.595 254.626 508.68 254.597C508.817 254.545 508.959 254.51 509.104 254.492C509.277 254.471 509.502 254.465 509.764 254.465H509.762ZM655.827 254.228C657.055 254.228 658.12 254.41 659.028 254.772C659.902 255.107 660.68 255.65 661.293 256.355C661.903 257.044 662.35 257.882 662.659 258.873C662.96 259.858 663.11 260.972 663.11 262.21C663.11 263.412 662.951 264.526 662.632 265.539C662.343 266.503 661.858 267.397 661.207 268.165C660.556 268.913 659.741 269.502 658.825 269.886C657.872 270.297 656.771 270.498 655.52 270.498C654.294 270.498 653.229 270.314 652.321 269.956C651.447 269.621 650.67 269.077 650.055 268.374C649.426 267.645 648.962 266.788 648.696 265.864C648.384 264.773 648.232 263.643 648.247 262.51C648.247 261.297 648.406 260.191 648.724 259.173C649.007 258.211 649.491 257.319 650.144 256.557C650.789 255.808 651.601 255.22 652.516 254.842C653.458 254.431 654.569 254.228 655.831 254.228H655.827ZM551.778 254.228C552.847 254.228 553.755 254.353 554.503 254.597C555.254 254.834 555.86 255.186 556.319 255.661C556.776 256.125 557.113 256.694 557.323 257.39C557.534 258.082 557.64 258.89 557.64 259.812V269.795C557.64 269.93 557.598 270.025 557.509 270.089C557.401 270.163 557.278 270.213 557.149 270.236C556.924 270.278 556.696 270.296 556.467 270.289C556.237 270.294 556.008 270.276 555.781 270.236C555.648 270.218 555.52 270.168 555.411 270.089C555.333 270.025 555.299 269.93 555.299 269.795V268.313C554.679 268.982 553.94 269.531 553.118 269.93C552.33 270.308 551.466 270.502 550.592 270.5C549.807 270.5 549.104 270.403 548.466 270.192C547.874 270.012 547.325 269.713 546.853 269.315C546.402 268.93 546.046 268.445 545.816 267.899C545.56 267.297 545.433 266.648 545.443 265.994C545.443 265.163 545.61 264.433 545.955 263.826C546.303 263.197 546.807 262.67 547.416 262.29C548.139 261.851 548.934 261.542 549.764 261.377C550.79 261.166 551.836 261.066 552.883 261.077H554.937V259.928C554.937 259.356 554.873 258.846 554.75 258.409C554.645 258.005 554.445 257.631 554.168 257.319C553.877 257.018 553.517 256.793 553.12 256.66C552.607 256.496 552.071 256.419 551.532 256.43C550.865 256.43 550.255 256.521 549.728 256.679C549.245 256.817 548.773 256.993 548.318 257.207C547.92 257.388 547.584 257.565 547.31 257.721C547.048 257.89 546.845 257.968 546.713 257.968C546.631 257.969 546.55 257.944 546.483 257.896C546.409 257.848 546.349 257.782 546.307 257.705C546.248 257.599 546.212 257.483 546.201 257.363C546.175 257.214 546.163 257.063 546.165 256.911C546.165 256.644 546.182 256.422 546.229 256.266C546.276 256.092 546.37 255.934 546.5 255.808C546.65 255.667 546.904 255.5 547.266 255.308C547.639 255.114 548.049 254.939 548.53 254.781C549.036 254.615 549.552 254.483 550.076 254.386C550.637 254.281 551.207 254.228 551.778 254.228ZM520.041 254.228C520.437 254.228 520.835 254.262 521.229 254.334C521.627 254.395 521.978 254.481 522.306 254.578C522.78 254.708 523.227 254.918 523.628 255.201C523.719 255.264 523.801 255.342 523.867 255.433C523.903 255.505 523.929 255.581 523.945 255.661C523.966 255.739 523.981 255.836 523.998 255.956C524.019 256.268 524.019 256.58 523.998 256.89C523.988 257.006 523.957 257.118 523.909 257.224C523.875 257.31 523.831 257.38 523.767 257.416C523.716 257.453 523.655 257.475 523.592 257.479C523.486 257.479 523.346 257.416 523.164 257.293C522.934 257.145 522.693 257.015 522.442 256.905C522.1 256.753 521.749 256.624 521.39 256.519C520.94 256.392 520.474 256.33 520.007 256.338C519.595 256.331 519.185 256.383 518.788 256.494C518.469 256.582 518.173 256.736 517.918 256.945C517.697 257.126 517.522 257.356 517.405 257.616C517.291 257.888 517.234 258.181 517.238 258.477C517.238 258.898 517.344 259.259 517.566 259.55C517.784 259.848 518.074 260.103 518.428 260.32C518.773 260.531 519.177 260.734 519.626 260.911L521.011 261.455C521.477 261.638 521.936 261.849 522.393 262.079C522.853 262.307 523.259 262.59 523.613 262.91C523.964 263.248 524.244 263.64 524.455 264.098C524.667 264.562 524.784 265.111 524.784 265.75C524.784 266.505 524.642 267.182 524.36 267.768C524.082 268.354 523.672 268.868 523.162 269.27C522.61 269.692 521.982 270.002 521.311 270.184C520.543 270.402 519.747 270.509 518.949 270.5C518.43 270.5 517.918 270.456 517.441 270.376C517.005 270.307 516.575 270.202 516.156 270.061C515.821 269.958 515.496 269.826 515.184 269.667C514.978 269.57 514.785 269.446 514.613 269.298C514.479 269.175 514.386 269.016 514.346 268.84C514.254 268.401 514.236 267.95 514.293 267.505C514.312 267.387 514.343 267.272 514.384 267.161C514.408 267.086 514.454 267.02 514.515 266.971C514.579 266.935 514.651 266.916 514.725 266.916C514.85 266.916 515.025 266.986 515.267 267.138C515.5 267.285 515.792 267.444 516.137 267.621C516.48 267.796 516.893 267.962 517.369 268.112C517.839 268.251 518.385 268.329 518.999 268.329C519.459 268.329 519.88 268.279 520.253 268.182C520.602 268.097 520.935 267.95 521.229 267.741C521.5 267.556 521.718 267.306 521.864 267.013C522.019 266.683 522.094 266.322 522.084 265.959C522.096 265.583 521.985 265.214 521.769 264.906C521.53 264.606 521.24 264.35 520.911 264.151C520.534 263.92 520.137 263.723 519.726 263.562C519.272 263.389 518.819 263.213 518.366 263.035C517.898 262.843 517.439 262.629 516.99 262.394C516.554 262.167 516.153 261.877 515.8 261.535C515.441 261.187 515.151 260.775 514.945 260.32C514.722 259.784 514.615 259.208 514.63 258.628C514.616 258.049 514.73 257.474 514.963 256.943C515.196 256.412 515.542 255.939 515.978 255.555C516.431 255.159 516.994 254.836 517.672 254.597C518.434 254.338 519.236 254.213 520.041 254.228ZM596.345 250.495C596.616 250.495 596.844 250.516 597.022 250.531C597.164 250.548 597.304 250.584 597.437 250.636C597.522 250.674 597.594 250.735 597.649 250.811C597.693 250.872 597.717 250.946 597.716 251.022V254.545H601.527C601.611 254.543 601.693 254.565 601.765 254.608C601.837 254.654 601.895 254.72 601.932 254.798C601.991 254.907 602.027 255.027 602.038 255.15C602.065 255.298 602.072 255.475 602.072 255.677C602.072 256.072 602.019 256.361 601.923 256.538C601.826 256.713 601.69 256.8 601.527 256.8H597.716V265.056C597.716 266.077 597.867 266.849 598.17 267.363C598.477 267.882 599.014 268.146 599.8 268.146C600.047 268.146 600.272 268.118 600.477 268.076C600.653 268.029 600.826 267.976 600.998 267.918C601.133 267.875 601.264 267.822 601.392 267.762C601.486 267.717 601.588 267.692 601.693 267.69C601.745 267.69 601.798 267.701 601.849 267.726C601.906 267.762 601.947 267.818 601.966 267.882C602.044 268.144 602.08 268.417 602.072 268.69C602.072 269.007 602.055 269.26 602.008 269.445C601.98 269.599 601.91 269.742 601.807 269.859C601.69 269.964 601.555 270.047 601.409 270.106C601.216 270.187 601.016 270.252 600.812 270.297C600.572 270.345 600.331 270.386 600.09 270.422C599.838 270.449 599.585 270.464 599.332 270.464C598.658 270.48 597.986 270.38 597.346 270.169C596.824 269.982 596.361 269.664 595.999 269.245C595.624 268.79 595.361 268.254 595.231 267.68C595.061 266.949 594.98 266.2 594.992 265.45V256.802H592.917C592.747 256.802 592.614 256.713 592.517 256.538C592.411 256.361 592.368 256.072 592.368 255.675C592.368 255.475 592.377 255.298 592.404 255.15C592.431 255.03 592.469 254.913 592.517 254.8C592.551 254.719 592.61 254.651 592.686 254.606C592.757 254.563 592.84 254.541 592.923 254.543H594.996V251.022C594.996 250.944 595.011 250.872 595.047 250.813C595.102 250.734 595.178 250.672 595.267 250.634C595.401 250.581 595.541 250.545 595.684 250.528C595.902 250.507 596.122 250.495 596.345 250.495ZM488.241 248.801C488.548 248.801 488.787 248.809 488.973 248.828C489.117 248.839 489.258 248.868 489.395 248.913C489.482 248.952 489.558 249.013 489.615 249.09C489.672 249.176 489.719 249.268 489.755 249.364L495.882 267.279H495.901L501.857 249.398C501.883 249.294 501.921 249.194 501.969 249.098C502.024 249.013 502.106 248.95 502.202 248.917C502.353 248.869 502.509 248.838 502.667 248.826C503.203 248.784 503.741 248.792 504.272 248.845C504.467 248.873 504.598 248.923 504.668 249.003C504.749 249.083 504.774 249.189 504.759 249.337C504.727 249.539 504.675 249.737 504.6 249.927L497.637 269.692C497.599 269.804 497.536 269.907 497.453 269.992C497.36 270.078 497.247 270.141 497.125 270.175C496.952 270.225 496.775 270.255 496.595 270.264C496.332 270.282 496.068 270.291 495.804 270.289C495.554 270.289 495.344 270.281 495.16 270.281C494.89 270.273 494.621 270.236 494.36 270.169C494.272 270.149 494.189 270.11 494.118 270.055C494.053 270.019 493.998 269.966 493.959 269.903C493.912 269.834 493.877 269.758 493.854 269.677L486.867 249.908C486.793 249.72 486.745 249.521 486.725 249.32C486.725 249.172 486.772 249.067 486.865 248.986C487.012 248.897 487.179 248.845 487.352 248.837C487.563 248.816 487.862 248.801 488.241 248.801ZM584.514 248.59C585.458 248.594 586.396 248.748 587.289 249.046C587.713 249.178 588.094 249.337 588.428 249.503C588.757 249.672 588.975 249.811 589.085 249.917C589.162 249.989 589.23 250.072 589.286 250.161C589.324 250.233 589.351 250.309 589.362 250.391C589.391 250.503 589.409 250.618 589.415 250.733C589.423 250.866 589.432 251.03 589.432 251.244C589.432 251.435 589.423 251.611 589.407 251.76C589.393 251.892 589.37 252.023 589.339 252.153C589.312 252.24 589.262 252.32 589.195 252.383C589.134 252.428 589.059 252.452 588.983 252.452C588.871 252.452 588.674 252.376 588.42 252.226C588.108 252.043 587.79 251.869 587.467 251.705C587.04 251.491 586.594 251.314 586.135 251.178C585.575 251.014 584.992 250.935 584.408 250.944C583.821 250.944 583.298 251.022 582.86 251.182C582.459 251.315 582.09 251.529 581.776 251.811C581.49 252.07 581.269 252.392 581.13 252.752C580.986 253.118 580.912 253.508 580.91 253.901C580.91 254.492 581.05 255.009 581.325 255.431C581.596 255.861 581.967 256.241 582.426 256.563C582.886 256.897 583.404 257.194 583.987 257.477C584.569 257.749 585.159 258.021 585.769 258.301C586.373 258.582 586.965 258.892 587.548 259.223C588.138 259.559 588.657 259.953 589.108 260.411C589.57 260.875 589.946 261.417 590.217 262.014C590.501 262.64 590.641 263.368 590.641 264.212C590.641 265.212 590.455 266.1 590.084 266.882C589.725 267.647 589.201 268.324 588.551 268.865C587.868 269.423 587.08 269.839 586.233 270.089C585.304 270.369 584.338 270.507 583.368 270.5C582.655 270.5 581.992 270.437 581.384 270.314C580.827 270.213 580.279 270.065 579.746 269.874C579.332 269.727 578.932 269.547 578.55 269.334C578.302 269.207 578.073 269.048 577.87 268.859C577.735 268.718 577.637 268.545 577.586 268.357C577.518 268.09 577.489 267.814 577.497 267.538C577.497 267.294 577.508 267.1 577.527 266.944C577.545 266.808 577.58 266.675 577.631 266.547C577.661 266.465 577.716 266.395 577.787 266.345C577.862 266.309 577.944 266.291 578.027 266.294C578.179 266.294 578.399 266.38 578.683 266.566C578.952 266.758 579.314 266.96 579.756 267.182C580.195 267.399 580.726 267.602 581.351 267.794C582.049 268 582.78 268.095 583.51 268.085C584.082 268.087 584.647 268.005 585.193 267.838C585.674 267.688 586.122 267.45 586.514 267.136C586.885 266.838 587.171 266.469 587.372 266.022C587.577 265.55 587.679 265.04 587.67 264.526C587.685 263.983 587.541 263.447 587.255 262.984C586.967 262.543 586.596 262.162 586.163 261.86C585.679 261.515 585.162 261.218 584.62 260.974L582.85 260.147C582.243 259.868 581.652 259.557 581.078 259.217C580.515 258.885 579.998 258.48 579.543 258.012C579.084 257.542 578.711 256.995 578.442 256.397C578.15 255.689 578.009 254.929 578.027 254.165C578.027 253.279 578.185 252.488 578.514 251.788C578.838 251.092 579.288 250.514 579.862 250.039C580.475 249.548 581.179 249.181 581.933 248.959C582.77 248.707 583.639 248.583 584.514 248.59ZM642.209 248.36C642.844 248.36 643.285 248.465 643.524 248.697C643.761 248.923 643.878 249.347 643.878 249.967C643.878 250.611 643.755 251.041 643.518 251.267C643.268 251.505 642.827 251.621 642.175 251.621C641.544 251.621 641.102 251.505 640.863 251.277C640.623 251.058 640.511 250.628 640.511 250.003C640.511 249.372 640.632 248.934 640.871 248.704C641.119 248.476 641.559 248.36 642.209 248.36ZM509.783 248.36C510.414 248.36 510.857 248.465 511.096 248.697C511.325 248.923 511.445 249.347 511.445 249.967C511.445 250.611 511.325 251.041 511.085 251.267C510.84 251.505 510.391 251.621 509.747 251.621C509.102 251.621 508.672 251.505 508.435 251.277C508.195 251.058 508.081 250.628 508.081 250.003C508.081 249.372 508.195 248.934 508.441 248.704C508.68 248.476 509.131 248.36 509.783 248.36ZM633.863 247.343C634.136 247.343 634.367 247.352 634.541 247.379C634.719 247.404 634.858 247.438 634.958 247.474C635.045 247.509 635.121 247.567 635.176 247.643C635.227 247.708 635.256 247.788 635.258 247.871V269.781C635.256 269.86 635.234 269.937 635.195 270.006C635.146 270.076 635.079 270.131 635 270.165C634.877 270.206 634.75 270.236 634.621 270.255C634.244 270.302 633.862 270.302 633.484 270.255C633.355 270.235 633.228 270.205 633.103 270.165C633.021 270.131 632.95 270.076 632.896 270.006C632.85 269.94 632.825 269.861 632.824 269.781V267.819C632.125 268.604 631.301 269.272 630.389 269.798C629.555 270.262 628.632 270.5 627.624 270.5C626.542 270.5 625.604 270.289 624.838 269.867C624.079 269.46 623.433 268.872 622.96 268.154C622.461 267.381 622.107 266.524 621.914 265.625C621.69 264.615 621.58 263.584 621.586 262.55C621.586 261.28 621.717 260.137 621.992 259.111C622.272 258.082 622.678 257.213 623.218 256.485C623.739 255.773 624.429 255.199 625.225 254.815C626.088 254.411 627.033 254.211 627.986 254.228C628.818 254.22 629.64 254.416 630.378 254.798C631.175 255.239 631.896 255.802 632.517 256.466V247.871C632.517 247.79 632.534 247.712 632.567 247.641C632.622 247.563 632.7 247.504 632.79 247.474C633.137 247.369 633.499 247.322 633.863 247.343ZM564.71 247.274C564.985 247.274 565.207 247.282 565.381 247.307C565.523 247.318 565.662 247.352 565.794 247.407C565.882 247.439 565.958 247.496 566.014 247.571C566.06 247.64 566.082 247.721 566.077 247.803V269.781C566.08 269.858 566.057 269.934 566.014 269.998C565.954 270.068 565.879 270.122 565.794 270.156C565.66 270.205 565.522 270.238 565.381 270.253C564.936 270.295 564.491 270.295 564.049 270.253C563.905 270.238 563.763 270.206 563.626 270.158C563.539 270.127 563.463 270.072 563.405 270C563.368 269.933 563.35 269.857 563.352 269.781V247.799C563.352 247.721 563.369 247.641 563.405 247.571C563.459 247.494 563.536 247.436 563.626 247.404C563.762 247.353 563.904 247.321 564.049 247.307C564.268 247.28 564.489 247.269 564.71 247.274ZM716.512 256.563C715.813 256.563 715.225 256.732 714.74 257.065C714.25 257.401 713.846 257.846 713.561 258.365C713.247 258.935 713.024 259.55 712.898 260.187C712.764 260.871 712.697 261.566 712.697 262.263C712.697 263.001 712.747 263.729 712.872 264.45C712.985 265.161 713.182 265.792 713.469 266.345C713.751 266.901 714.132 267.349 714.606 267.68C715.083 268.013 715.673 268.182 716.389 268.182C716.76 268.182 717.103 268.127 717.439 268.034C717.803 267.918 718.153 267.754 718.47 267.541C718.822 267.313 719.19 267.013 719.58 266.644C719.967 266.275 720.371 265.819 720.806 265.281V259.365C720.064 258.453 719.349 257.757 718.661 257.283C718.036 256.829 717.287 256.579 716.514 256.565L716.512 256.563ZM698.929 256.5C698.116 256.5 697.421 256.644 696.841 256.932C696.266 257.207 695.769 257.62 695.395 258.135C695.003 258.695 694.718 259.323 694.557 259.987C694.366 260.753 694.275 261.539 694.284 262.326C694.284 263.142 694.353 263.898 694.504 264.609C694.654 265.326 694.908 265.952 695.251 266.477C695.607 267.013 696.073 267.435 696.663 267.743C697.256 268.055 697.984 268.216 698.859 268.216C699.661 268.216 700.356 268.068 700.946 267.787C701.519 267.509 702.014 267.097 702.39 266.585C702.771 266.075 703.047 265.459 703.231 264.739C703.413 263.969 703.502 263.178 703.495 262.387C703.497 261.625 703.419 260.866 703.262 260.12C703.13 259.455 702.879 258.82 702.524 258.242C702.176 257.705 701.695 257.266 701.126 256.968C700.542 256.66 699.801 256.5 698.929 256.5ZM733.718 256.352C733.106 256.344 732.499 256.473 731.944 256.732C731.453 256.973 731.018 257.313 730.667 257.732C730.313 258.165 730.04 258.659 729.863 259.19C729.677 259.751 729.571 260.336 729.549 260.928H737.656C737.692 259.504 737.375 258.382 736.703 257.574C736.037 256.757 735.039 256.352 733.718 256.352ZM733.858 254.228C735.031 254.228 736.018 254.422 736.837 254.791C737.618 255.135 738.313 255.652 738.869 256.3C739.392 256.924 739.78 257.671 740.027 258.515C740.277 259.4 740.402 260.316 740.398 261.236V261.738C740.398 262.157 740.292 262.465 740.072 262.647C739.868 262.82 739.608 262.914 739.339 262.913H729.549C729.549 263.737 729.636 264.474 729.804 265.134C729.964 265.794 730.244 266.364 730.631 266.83C731.021 267.3 731.523 267.663 732.139 267.916C732.757 268.173 733.515 268.296 734.413 268.296C735.545 268.299 736.669 268.109 737.737 267.735C738.143 267.593 738.478 267.46 738.732 267.349C738.917 267.256 739.118 267.198 739.325 267.18C739.403 267.18 739.473 267.199 739.536 267.233C739.597 267.279 739.645 267.34 739.676 267.41C739.708 267.512 739.731 267.618 739.746 267.724C739.78 268.015 739.782 268.31 739.754 268.602C739.745 268.697 739.729 268.791 739.708 268.884C739.678 269.039 739.598 269.181 739.481 269.287C739.318 269.413 739.137 269.514 738.943 269.587C738.571 269.755 738.184 269.89 737.787 269.992C737.247 270.135 736.7 270.252 736.149 270.342C735.49 270.45 734.824 270.502 734.156 270.5C732.931 270.5 731.866 270.331 730.949 269.994C730.066 269.676 729.269 269.158 728.622 268.481C727.969 267.755 727.484 266.893 727.204 265.959C726.886 264.946 726.727 263.784 726.727 262.438C726.727 261.164 726.897 260.025 727.221 259.012C727.517 258.063 728.004 257.181 728.648 256.422C729.27 255.721 730.041 255.166 730.905 254.798C731.839 254.408 732.845 254.214 733.858 254.228ZM699.034 254.228C700.262 254.228 701.325 254.41 702.231 254.772C703.104 255.11 703.883 255.652 704.497 256.355C705.109 257.044 705.555 257.882 705.867 258.873C706.163 259.858 706.315 260.972 706.315 262.212C706.315 263.415 706.157 264.526 705.841 265.539C705.552 266.504 705.065 267.398 704.41 268.165C703.76 268.913 702.946 269.502 702.03 269.886C701.078 270.297 699.977 270.498 698.727 270.498C697.5 270.498 696.435 270.316 695.528 269.956C694.655 269.621 693.877 269.078 693.263 268.374C692.633 267.645 692.169 266.788 691.904 265.864C691.59 264.774 691.438 263.644 691.453 262.51C691.453 261.297 691.612 260.191 691.931 259.173C692.214 258.211 692.697 257.32 693.35 256.557C693.995 255.809 694.807 255.222 695.721 254.842C696.663 254.431 697.766 254.23 699.037 254.23L699.034 254.228ZM682.65 248.643C683.266 248.643 683.867 248.695 684.447 248.811C685.04 248.923 685.576 249.073 686.071 249.248C686.562 249.425 687.003 249.628 687.39 249.856C687.78 250.081 688.046 250.273 688.194 250.425C688.302 250.524 688.397 250.637 688.476 250.76C688.53 250.843 688.568 250.936 688.588 251.033C688.69 251.505 688.708 251.992 688.643 252.471C688.629 252.604 688.596 252.734 688.546 252.857C688.516 252.947 688.461 253.026 688.389 253.087C688.328 253.141 688.248 253.168 688.167 253.165C688.008 253.165 687.796 253.06 687.513 252.842C687.173 252.586 686.817 252.352 686.448 252.14C685.943 251.846 685.409 251.606 684.854 251.425C684.126 251.2 683.367 251.093 682.605 251.109C681.652 251.109 680.789 251.294 680.005 251.672C679.214 252.062 678.528 252.634 678.004 253.342C677.415 254.156 676.98 255.069 676.719 256.038C676.4 257.22 676.244 258.44 676.258 259.664C676.258 261.008 676.41 262.202 676.7 263.24C677.001 264.273 677.414 265.142 677.962 265.838C678.517 266.53 679.186 267.057 679.98 267.418C680.782 267.768 681.68 267.952 682.683 267.952C683.541 267.952 684.28 267.846 684.915 267.638C685.48 267.46 686.026 267.228 686.545 266.941C686.924 266.731 687.288 266.494 687.646 266.241C687.936 266.03 688.167 265.925 688.324 265.925C688.396 265.922 688.467 265.941 688.529 265.977C688.588 266.024 688.635 266.089 688.658 266.161C688.7 266.288 688.726 266.416 688.741 266.547C688.749 266.716 688.756 266.927 688.756 267.178C688.756 267.357 688.756 267.505 688.749 267.638C688.735 267.753 688.714 267.867 688.686 267.979C688.664 268.072 688.629 268.161 688.58 268.243C688.517 268.346 688.441 268.44 688.353 268.524C688.137 268.713 687.903 268.881 687.655 269.026C687.239 269.286 686.799 269.506 686.342 269.684C685.76 269.92 685.158 270.102 684.542 270.228C683.813 270.38 683.069 270.454 682.324 270.447C681.039 270.466 679.762 270.233 678.568 269.762C677.467 269.313 676.489 268.612 675.712 267.716C674.92 266.819 674.321 265.716 673.895 264.389C673.467 263.071 673.264 261.541 673.264 259.822C673.264 258.057 673.482 256.485 673.942 255.106C674.346 253.821 674.999 252.628 675.864 251.594C676.673 250.647 677.688 249.896 678.832 249.398C680.037 248.88 681.338 248.623 682.65 248.643ZM722.156 247.343C722.382 247.339 722.608 247.351 722.832 247.379C722.972 247.398 723.11 247.43 723.245 247.476C723.331 247.512 723.406 247.568 723.465 247.641C723.516 247.707 723.545 247.789 723.545 247.873V269.781C723.543 269.86 723.522 269.937 723.484 270.006C723.433 270.078 723.363 270.133 723.281 270.165C723.16 270.207 723.036 270.238 722.91 270.255C722.533 270.302 722.152 270.302 721.775 270.255C721.646 270.235 721.519 270.205 721.394 270.165C721.311 270.131 721.238 270.076 721.182 270.006C721.138 269.939 721.114 269.861 721.115 269.781V267.819C720.411 268.601 719.59 269.268 718.68 269.798C717.834 270.265 716.88 270.507 715.913 270.5C714.829 270.5 713.895 270.289 713.126 269.867C712.369 269.46 711.724 268.871 711.251 268.154C710.75 267.381 710.394 266.525 710.201 265.625C709.978 264.615 709.869 263.584 709.877 262.55C709.877 261.28 710.008 260.137 710.281 259.111C710.565 258.082 710.969 257.213 711.507 256.485C712.03 255.772 712.718 255.199 713.516 254.815C714.379 254.412 715.322 254.211 716.275 254.228C717.147 254.228 717.939 254.422 718.661 254.798C719.46 255.238 720.184 255.802 720.806 256.468V247.871C720.806 247.791 720.823 247.713 720.856 247.641C720.89 247.569 720.971 247.518 721.079 247.476C721.217 247.433 721.359 247.401 721.502 247.379C721.678 247.352 721.89 247.343 722.156 247.343Z"
            fill="#0877B9" />
        <mask id="mask0_720_35" style="mask-type:alpha" maskUnits="userSpaceOnUse" x="499" y="1"
            width="229" height="227">
            <path fill-rule="evenodd" clip-rule="evenodd"
                d="M661.378 226.758C664.977 228.154 669.085 228.066 672.72 226.323L719.798 203.753C722.222 202.59 724.268 200.769 725.699 198.499C727.131 196.229 727.89 193.603 727.89 190.922V37.8908C727.89 35.21 727.131 32.5836 725.699 30.3137C724.268 28.0438 722.222 26.2226 719.798 25.0595L672.72 2.48915C670.06 1.21455 667.068 0.795199 664.159 1.28912C661.249 1.78305 658.565 3.16583 656.479 5.24611L566.355 87.1637L527.102 57.4742C525.331 56.1345 523.145 55.455 520.923 55.5536C518.702 55.6523 516.585 56.5229 514.941 58.0142L502.35 69.4259C501.369 70.3151 500.586 71.3983 500.049 72.6063C499.513 73.8143 499.235 75.1206 499.234 76.4415C499.233 77.7625 499.509 79.0691 500.044 80.2779C500.578 81.4867 501.36 82.5711 502.339 83.4617L536.384 114.406L502.339 145.351C501.36 146.241 500.578 147.326 500.043 148.535C499.508 149.744 499.232 151.051 499.233 152.372C499.234 153.693 499.512 155 500.049 156.208C500.585 157.416 501.369 158.499 502.35 159.389L514.941 170.8C516.585 172.291 518.702 173.161 520.923 173.259C523.144 173.357 525.329 172.678 527.1 171.338L566.355 141.649L656.477 223.566C657.871 224.957 659.54 226.044 661.378 226.758ZM670.759 62.6907L602.379 114.406L670.759 166.122V62.6907Z"
                fill="white" />
        </mask>
        <g mask="url(#mask0_720_35)">
            <path
                d="M729.766 26.0856L679.555 1.99775C676.719 0.637726 673.529 0.189496 670.427 0.715089C667.324 1.24068 664.462 2.7141 662.237 4.93145L497.865 154.247C496.82 155.195 495.986 156.351 495.416 157.64C494.845 158.928 494.551 160.321 494.552 161.729C494.553 163.138 494.85 164.53 495.422 165.818C495.994 167.106 496.83 168.26 497.876 169.207L511.301 181.369C513.056 182.959 515.313 183.886 517.682 183.991C520.051 184.096 522.382 183.371 524.271 181.943L722.211 32.3351C728.852 27.3152 738.389 32.0339 738.389 40.3382V39.7582C738.39 36.9015 737.58 34.1028 736.055 31.684C734.529 29.2653 732.349 27.3247 729.766 26.0856Z"
                fill="#0065A9" />
            <g filter="url(#filter0_d_720_35)">
                <path
                    d="M729.766 216.45L679.555 240.536C676.719 241.896 673.529 242.345 670.427 241.819C667.324 241.294 664.462 239.821 662.237 237.604L497.865 88.2892C496.82 87.3403 495.986 86.1846 495.416 84.8961C494.845 83.6076 494.551 82.2146 494.552 80.8063C494.553 79.398 494.85 78.0055 495.422 76.7178C495.994 75.4301 496.83 74.2757 497.876 73.3284L511.301 61.1665C513.056 59.5771 515.313 58.6496 517.682 58.5449C520.051 58.4402 522.382 59.1649 524.271 60.5932L722.211 210.201C728.852 215.221 738.389 210.502 738.389 202.198V202.778C738.39 205.634 737.58 208.433 736.055 210.852C734.529 213.27 732.349 215.211 729.766 216.45Z"
                    fill="#007ACC" />
            </g>
            <g filter="url(#filter1_d_720_35)">
                <path
                    d="M679.557 240.54C676.721 241.9 673.53 242.348 670.427 241.822C667.324 241.296 664.462 239.822 662.237 237.604C667.855 243.204 677.467 239.239 677.467 231.319V11.2172C677.467 3.29731 667.855 -0.668243 662.237 4.93164C664.462 2.71394 667.324 1.23998 670.427 0.713605C673.53 0.187232 676.72 0.634463 679.557 1.99344L729.759 26.0475C732.344 27.2859 734.525 29.2264 736.052 31.6457C737.579 34.0649 738.389 36.8646 738.389 39.7224V202.814C738.389 205.671 737.579 208.471 736.052 210.89C734.525 213.31 732.344 215.25 729.759 216.488L679.557 240.54Z"
                    fill="#1F9CF0" />
            </g>
            <path opacity="0.25" fill-rule="evenodd" clip-rule="evenodd"
                d="M667.359 241.003C669.298 241.757 671.371 242.105 673.451 242.026C675.53 241.947 677.571 241.442 679.446 240.542L729.617 216.488C732.2 215.249 734.38 213.308 735.906 210.889C737.432 208.47 738.241 205.671 738.241 202.814V39.7223C738.241 36.8652 737.432 34.0659 735.907 31.6467C734.381 29.2275 732.201 27.2866 729.617 26.0475L679.446 1.9934C676.611 0.634489 673.422 0.187286 670.321 0.713694C667.219 1.2401 664.359 2.71408 662.135 4.93159L566.088 92.2344L524.253 60.5932C522.366 59.1654 520.036 58.4412 517.668 58.5464C515.301 58.6515 513.045 59.5793 511.292 61.1687L497.874 73.3306C496.829 74.2783 495.994 75.4327 495.422 76.7201C494.85 78.0075 494.555 79.3996 494.554 80.8074C494.552 82.2152 494.846 83.6077 495.416 84.896C495.986 86.1842 496.819 87.3399 497.863 88.2891L534.145 121.268L497.863 154.247C496.819 155.196 495.985 156.352 495.415 157.64C494.845 158.929 494.551 160.322 494.552 161.73C494.553 163.138 494.849 164.53 495.421 165.818C495.993 167.105 496.829 168.26 497.874 169.208L511.292 181.369C513.045 182.958 515.301 183.885 517.668 183.99C520.035 184.094 522.364 183.37 524.251 181.943L566.088 150.301L662.135 237.604C663.62 239.086 665.4 240.244 667.359 241.003ZM677.355 66.1504L604.481 121.268L677.359 176.383V66.1526L677.355 66.1504Z"
                fill="url(#paint0_linear_720_35)" />
        </g>
    </g>
    <defs>
        <filter id="filter0_d_720_35" x="485.67" y="49.6531" width="261.601" height="201.262"
            filterUnits="userSpaceOnUse" color-interpolation-filters="sRGB">
            <feFlood flood-opacity="0" result="BackgroundImageFix" />
            <feColorMatrix in="SourceAlpha" type="matrix"
                values="0 0 0 0 0 0 0 0 0 0 0 0 0 0 0 0 0 0 127 0" result="hardAlpha" />
            <feOffset />
            <feGaussianBlur stdDeviation="4.44094" />
            <feColorMatrix type="matrix" values="0 0 0 0 0 0 0 0 0 0 0 0 0 0 0 0 0 0 0.25 0" />
            <feBlend mode="overlay" in2="BackgroundImageFix" result="effect1_dropShadow_720_35" />
            <feBlend mode="normal" in="SourceGraphic" in2="effect1_dropShadow_720_35" result="shape" />
        </filter>
        <filter id="filter1_d_720_35" x="653.355" y="-8.38295" width="93.9163" height="259.301"
            filterUnits="userSpaceOnUse" color-interpolation-filters="sRGB">
            <feFlood flood-opacity="0" result="BackgroundImageFix" />
            <feColorMatrix in="SourceAlpha" type="matrix"
                values="0 0 0 0 0 0 0 0 0 0 0 0 0 0 0 0 0 0 127 0" result="hardAlpha" />
            <feOffset />
            <feGaussianBlur stdDeviation="4.44094" />
            <feColorMatrix type="matrix" values="0 0 0 0 0 0 0 0 0 0 0 0 0 0 0 0 0 0 0.25 0" />
            <feBlend mode="overlay" in2="BackgroundImageFix" result="effect1_dropShadow_720_35" />
            <feBlend mode="normal" in="SourceGraphic" in2="effect1_dropShadow_720_35" result="shape" />
        </filter>
        <linearGradient id="paint0_linear_720_35" x1="616.396" y1="0.498447" x2="616.396"
            y2="242.037" gradientUnits="userSpaceOnUse">
            <stop stop-color="white" />
            <stop offset="1" stop-color="white" stop-opacity="0" />
        </linearGradient>
        <clipPath id="clip0_720_35">
            <rect width="295.062" height="262.788" fill="white" />
        </clipPath>
        <clipPath id="clip1_720_35">
            <rect width="114.97" height="114.97" fill="white" transform="translate(168.349 156.03)" />
        </clipPath>
        <clipPath id="clip2_720_35">
            <rect width="271" height="270" fill="white" transform="translate(478.062 0.5)" />
        </clipPath>
    </defs>
</svg>
    